<svg width="15" height="15" viewBox="0 0 15 15" fill="none" xmlns="http://www.w3.org/2000/svg">
<rect x="1" y="1" width="13" height="13" rx="6.5" fill="white"/>
<rect x="1" y="1" width="13" height="13" rx="6.5" stroke="black"/>
<path d="M11.2447 4.7549H9.45745V4.36275C9.45745 4.13393 9.35881 3.91449 9.18325 3.75269C9.00768 3.5909 8.76956 3.5 8.52128 3.5H6.47872C6.23044 3.5 5.99232 3.5909 5.81675 3.75269C5.64119 3.91449 5.54255 4.13393 5.54255 4.36275V4.7549H3.75532C3.6876 4.7549 3.62266 4.77969 3.57478 4.82382C3.5269 4.86794 3.5 4.92779 3.5 4.9902C3.5 5.0526 3.5269 5.11245 3.57478 5.15657C3.62266 5.2007 3.6876 5.22549 3.75532 5.22549H4.18085V10.951C4.18085 11.0966 4.24362 11.2362 4.35534 11.3392C4.46706 11.4422 4.61859 11.5 4.7766 11.5H10.2234C10.3814 11.5 10.5329 11.4422 10.6447 11.3392C10.7564 11.2362 10.8191 11.0966 10.8191 10.951V5.22549H11.2447C11.3124 5.22549 11.3773 5.2007 11.4252 5.15657C11.4731 5.11245 11.5 5.0526 11.5 4.9902C11.5 4.92779 11.4731 4.86794 11.4252 4.82382C11.3773 4.77969 11.3124 4.7549 11.2447 4.7549ZM6.05319 4.36275C6.05319 4.25874 6.09802 4.15899 6.17783 4.08545C6.25763 4.0119 6.36587 3.97059 6.47872 3.97059H8.52128C8.63413 3.97059 8.74237 4.0119 8.82217 4.08545C8.90198 4.15899 8.94681 4.25874 8.94681 4.36275V4.7549H6.05319V4.36275ZM10.3085 10.951C10.3085 10.9718 10.2995 10.9917 10.2836 11.0064C10.2676 11.0211 10.246 11.0294 10.2234 11.0294H4.7766C4.75402 11.0294 4.73238 11.0211 4.71642 11.0064C4.70046 10.9917 4.69149 10.9718 4.69149 10.951V5.22549H10.3085V10.951ZM6.73404 6.87255V9.38235C6.73404 9.44476 6.70714 9.50461 6.65926 9.54873C6.61138 9.59286 6.54644 9.61765 6.47872 9.61765C6.41101 9.61765 6.34607 9.59286 6.29819 9.54873C6.2503 9.50461 6.2234 9.44476 6.2234 9.38235V6.87255C6.2234 6.81015 6.2503 6.7503 6.29819 6.70617C6.34607 6.66205 6.41101 6.63725 6.47872 6.63725C6.54644 6.63725 6.61138 6.66205 6.65926 6.70617C6.70714 6.7503 6.73404 6.81015 6.73404 6.87255ZM8.7766 6.87255V9.38235C8.7766 9.44476 8.7497 9.50461 8.70181 9.54873C8.65393 9.59286 8.58899 9.61765 8.52128 9.61765C8.45356 9.61765 8.38862 9.59286 8.34074 9.54873C8.29286 9.50461 8.26596 9.44476 8.26596 9.38235V6.87255C8.26596 6.81015 8.29286 6.7503 8.34074 6.70617C8.38862 6.66205 8.45356 6.63725 8.52128 6.63725C8.58899 6.63725 8.65393 6.66205 8.70181 6.70617C8.7497 6.7503 8.7766 6.81015 8.7766 6.87255Z" fill="black"/>
</svg>
