<svg width="72" height="72" viewBox="0 0 72 72" fill="none" xmlns="http://www.w3.org/2000/svg">
<rect x="1.5" y="1.5" width="68.7188" height="68.7188" rx="34.3594" stroke="black" stroke-width="3"/>
<path d="M55.2359 37.8446C55.7252 37.3554 56 36.6919 56 36C56 35.3081 55.7252 34.6446 55.2359 34.1554C54.7467 33.6662 54.0832 33.3913 53.3913 33.3913H38.6087V18.6087C38.6087 17.9168 38.3339 17.2533 37.8446 16.7641C37.3554 16.2748 36.6919 16 36 16C35.3081 16 34.6446 16.2748 34.1554 16.7641C33.6662 17.2533 33.3913 17.9168 33.3913 18.6087V33.3913H18.6087C17.9168 33.3913 17.2533 33.6662 16.7641 34.1554C16.2748 34.6446 16 35.3081 16 36C16 36.6919 16.2748 37.3554 16.7641 37.8446C17.2533 38.3339 17.9168 38.6087 18.6087 38.6087H33.3913V53.3913C33.3913 54.0832 33.6662 54.7467 34.1554 55.2359C34.6446 55.7252 35.3081 56 36 56C36.6919 56 37.3554 55.7252 37.8446 55.2359C38.3339 54.7467 38.6087 54.0832 38.6087 53.3913V38.6087H53.3913C54.0832 38.6087 54.7467 38.3339 55.2359 37.8446Z" fill="black"/>
</svg>
